<?xml version="1.0" encoding="UTF-8" standalone="no"?>
<svg width="49px" height="49px" viewBox="0 0 49 49" version="1.1" xmlns="http://www.w3.org/2000/svg" xmlns:xlink="http://www.w3.org/1999/xlink">
    <!-- Generator: Sketch 45.2 (43514) - http://www.bohemiancoding.com/sketch -->
    <title>Upload</title>
    <desc>Created with Sketch.</desc>
    <defs></defs>
    <g id="upload" stroke="none" stroke-width="1" fill="none" fill-rule="evenodd">
        <g id="upload" transform="translate(-1062.000000, -401.000000)" fill="currentColor">
            <g id="upload" transform="translate(1062.000000, 401.000000)">
                <path d="M25.0866,0.4324 C25.0386,0.3844 24.9766,0.3584 24.9206,0.3214 C24.8686,0.2864 24.8236,0.2424 24.7666,0.2174 C24.6926,0.1874 24.6126,0.1834 24.5336,0.1704 C24.4826,0.1614 24.4346,0.1394 24.3796,0.1394 C24.2996,0.1394 24.2286,0.1674 24.1536,0.1854 C24.1016,0.1984 24.0446,0.1974 23.9946,0.2174 C23.9226,0.2474 23.8636,0.2994 23.8016,0.3454 C23.7596,0.3764 23.7096,0.3954 23.6716,0.4324 L9.6716,14.4324 C9.2826,14.8244 9.2826,15.4564 9.6716,15.8464 C10.0626,16.2374 10.6956,16.2374 11.0866,15.8464 L23.3796,3.5544 L23.3796,33.1404 C23.3796,33.6924 23.8276,34.1394 24.3796,34.1394 C24.9316,34.1394 25.3786,33.6924 25.3786,33.1404 L25.3786,3.5534 L37.6716,15.8484 C38.0656,16.2394 38.6976,16.2394 39.0866,15.8464 C39.4786,15.4564 39.4786,14.8224 39.0866,14.4324 L25.0866,0.4324 Z M47.4566,33.3704 C46.9466,33.3704 46.5346,33.7834 46.5346,34.2914 L46.5346,41.6784 C46.5306,44.2254 44.4676,46.2904 41.9196,46.2934 L6.8416,46.2934 C4.2936,46.2884 2.2316,44.2254 2.2256,41.6784 L2.2256,34.2914 C2.2256,33.7834 1.8126,33.3704 1.3026,33.3704 C0.7926,33.3704 0.3796,33.7834 0.3796,34.2914 L0.3796,41.6784 C0.3816,45.2474 3.2726,48.1374 6.8416,48.1394 L41.9196,48.1394 C45.4886,48.1394 48.3796,45.2474 48.3796,41.6784 L48.3796,34.2914 C48.3796,33.7834 47.9666,33.3704 47.4566,33.3704 L47.4566,33.3704 Z" id="Fill-3"></path>
            </g>
        </g>
    </g>
</svg>