<?xml version="1.0" encoding="UTF-8" standalone="no"?>
<svg width="56px" height="40px" viewBox="0 0 56 40" version="1.1" xmlns="http://www.w3.org/2000/svg" xmlns:xlink="http://www.w3.org/1999/xlink">
    <!-- Generator: Sketch 43.2 (39069) - http://www.bohemiancoding.com/sketch -->
    <title>Vision Insurance</title>
    <desc>Created with Sketch.</desc>
    <defs></defs>
    <g id="vision-insurance" stroke="none" stroke-width="1" fill="none" fill-rule="evenodd">
        <g id="vision-insurance" transform="translate(-279.000000, -404.000000)" fill="currentColor">
            <g id="vision-insurance" transform="translate(279.000000, 404.000000)">
                <path d="M28.00025,12 C27.44825,12 27.00025,12.447 27.00025,13 C27.00025,13.553 27.44825,14 28.00025,14 C31.30925,14 34.00025,16.691 34.00025,20 C34.00025,23.309 31.30925,26 28.00025,26 C24.69125,26 22.00025,23.309 22.00025,20 C22.00025,19.447 21.55225,19 21.00025,19 C20.44825,19 20.00025,19.447 20.00025,20 C20.00025,24.411 23.58925,28 28.00025,28 C32.41125,28 36.00025,24.411 36.00025,20 C36.00025,15.589 32.41125,12 28.00025,12 M28.00025,32 C21.38325,32 16.00025,26.617 16.00025,20 C16.00025,13.383 21.38325,8 28.00025,8 C34.61725,8 40.00025,13.383 40.00025,20 C40.00025,26.617 34.61725,32 28.00025,32 M28.00025,6 C20.28025,6 14.00025,12.28 14.00025,20 C14.00025,27.72 20.28025,34 28.00025,34 C35.72025,34 42.00025,27.72 42.00025,20 C42.00025,12.28 35.72025,6 28.00025,6 M28.00025,38 C17.50225,38 7.85725,31.281 2.11925,20 C7.85725,8.719 17.50225,2 28.00025,2 C38.49825,2 48.14325,8.719 53.88125,20 C48.14325,31.281 38.49825,38 28.00025,38 M55.89625,19.557 C49.84225,7.311 39.41325,0 28.00025,0 C16.58725,0 6.15825,7.311 0.10425,19.557 C-0.03475,19.836 -0.03475,20.164 0.10425,20.443 C6.15825,32.69 16.58725,40 28.00025,40 C39.41325,40 49.84225,32.69 55.89625,20.443 C56.03425,20.164 56.03425,19.836 55.89625,19.557"></path>
            </g>
        </g>
    </g>
</svg>